<mxfile host="app.diagrams.net" modified="2023-08-01T08:13:23.810Z" agent="Mozilla/5.0 (Windows NT 10.0; Win64; x64) AppleWebKit/537.36 (KHTML, like Gecko) Chrome/115.0.0.0 Safari/537.36" etag="ysf9UaIQvSgpUcK1QKLZ" version="21.6.5" type="github">
  <diagram name="第 1 页" id="-3P-wQT3Q99V9HTAiL1x">
    <mxGraphModel dx="1995" dy="1102" grid="0" gridSize="10" guides="1" tooltips="1" connect="1" arrows="1" fold="1" page="1" pageScale="1" pageWidth="827" pageHeight="1169" math="0" shadow="0">
      <root>
        <mxCell id="0" />
        <mxCell id="1" parent="0" />
      </root>
    </mxGraphModel>
  </diagram>
</mxfile>
